<svg style="height: 512px; width: 512px;" xmlns="http://www.w3.org/2000/svg" viewBox="0 0 512 512"><path d="M0 0h512v512H0z" fill="#282828" fill-opacity="1"></path><g class="" style="touch-action: none;" transform="translate(-1,1)"><g><path d="M413.72 19.395L413.72 118.035L367.604 164.152L333.406 129.952L326.799 136.562L185.279 278.078L298.792 391.588L246.017 444.361L246.019 494.671L264.706 494.671L264.706 452.103L312.006 404.803L333.406 426.203L481.528 278.079L421.363 217.915L488.81 150.465L488.81 19.395L470.123 19.395L470.123 142.725L408.148 204.7L380.816 177.367L432.406 125.777L432.406 19.395L413.72 19.395Z" class="selected" fill="#000000" fill-opacity="1"></path><path d="M19.36 30.303L19.36 48.99L205.967 48.99L250.221 93.244C247.661 97.637 246.189 102.74 246.189 108.191C246.189 124.613 259.501 137.927 275.921 137.927C292.341 137.927 305.653 124.613 305.653 108.192C305.653 91.772 292.341 78.462 275.921 78.462C271.778 78.462 267.833 79.312 264.249 80.844L213.709 30.304L19.36 30.304Z" class="" fill="#458588" fill-opacity="1"></path><path d="M19.36 85.781L19.36 104.471L150.486 104.474L194.74 148.728C192.18 153.12 190.705 158.224 190.705 163.675C190.705 180.095 204.017 193.407 220.437 193.407C236.857 193.407 250.17 180.095 250.17 163.675C250.17 147.255 236.858 133.942 220.438 133.942C216.294 133.942 212.35 134.792 208.766 136.324L158.226 85.784L19.362 85.784Z" class="" fill="#d79921" fill-opacity="1"></path><path d="M102.746 141.263L19.361 141.265L19.361 159.955L95.007 159.952L139.261 204.212C136.701 208.602 135.228 213.708 135.228 219.158C135.228 235.578 148.54 248.891 164.96 248.891C181.38 248.891 194.69 235.578 194.69 219.157C194.69 202.737 181.38 189.423 164.96 189.423C160.815 189.423 156.87 190.273 153.285 191.806L102.745 141.263Z" class="" fill="#98971a" fill-opacity="1"></path><path d="M333.406 156.383L455.1 278.08L333.406 399.77L211.71 278.08L333.406 156.385Z" class="" fill="#cc241d" fill-opacity="1"></path><path d="M332.152 183.771L237.578 278.345L332.59 373.36L345.805 360.146L264.008 278.346L345.368 196.984L332.152 183.77Z" class="" fill="#000000" fill-opacity="1"></path><path d="M19.362 205.329L19.362 256.536L179.492 416.666L179.492 494.671L198.182 494.671L198.182 384.146L19.362 205.328Z" class="" fill="#504945" fill-opacity="1"></path><path d="M365.872 213.726L352.66 226.94L404.14 278.422L352.37 330.192L365.588 343.406L430.57 278.422L365.875 213.725Z" class="" fill="#000000" fill-opacity="1"></path><path d="M335.942 246.886C318.492 246.886 304.35 261.033 304.35 278.48C304.35 295.925 318.493 310.07 335.94 310.07C353.39 310.07 367.533 295.925 367.533 278.48C367.533 261.03 353.39 246.885 335.941 246.885Z" class="" fill="#000000" fill-opacity="1"></path><path d="M19.36 295.35L19.36 346.557L114.246 441.437L114.246 494.67L132.934 494.67L132.934 408.92L19.362 295.35Z" class="" fill="#504945" fill-opacity="1"></path><path d="M446.738 368.504C430.318 368.504 417.006 381.816 417.006 398.236C417.006 414.656 430.318 427.971 446.738 427.971C450.732 427.971 454.54 427.177 458.018 425.749L494.638 462.364L494.638 435.937L472.236 413.537C474.924 409.067 476.473 403.833 476.473 398.237C476.473 381.817 463.159 368.505 446.738 368.505Z" class="" fill="#504945" fill-opacity="1"></path><path d="M19.36 386.19L19.36 437.4L50.654 468.69L50.652 494.672L69.34 494.672L69.346 436.176L19.36 386.19Z" class="" fill="#504945" fill-opacity="1"></path><path d="M391.262 423.986C374.842 423.986 361.529 437.298 361.529 453.719C361.529 470.139 374.839 483.449 391.261 483.449C394.774 483.449 398.143 482.837 401.271 481.719L414.226 494.669L440.656 494.669L416.076 470.091C419.18 465.394 420.993 459.769 420.993 453.718C420.993 437.296 407.681 423.984 391.261 423.984Z" class="" fill="#504945" fill-opacity="1"></path></g></g></svg>